<?xml version="1.0" encoding="UTF-8" standalone="no" ?>
<!DOCTYPE svg PUBLIC "-//W3C//DTD SVG 1.1//EN" "http://www.w3.org/Graphics/SVG/1.1/DTD/svg11.dtd">
<svg xmlns="http://www.w3.org/2000/svg" xmlns:xlink="http://www.w3.org/1999/xlink" version="1.1" width="1280" height="1024" viewBox="0 0 1280 1024" xml:space="preserve">
<desc>Created with Fabric.js 5.3.0</desc>
<defs>
</defs>
<g transform="matrix(1 0 0 1 640 512)" id="background-logo"  >
<rect style="stroke: none; stroke-width: 0; stroke-dasharray: none; stroke-linecap: butt; stroke-dashoffset: 0; stroke-linejoin: miter; stroke-miterlimit: 4; fill: rgb(255,255,255); fill-opacity: 0; fill-rule: nonzero; opacity: 1;"  paint-order="stroke"  x="-640" y="-512" rx="0" ry="0" width="1280" height="1024" />
</g>
<g transform="matrix(2.840736735574566 0 0 2.840736735574566 639.5909314260756 459.16170854947177)" id="logo-logo"  >
<g style=""  paint-order="stroke"   >
		<g transform="matrix(0.0838747091998703 0 0 -0.08387470919987032 0 0)"  >
<linearGradient id="SVGID_93431" gradientUnits="userSpaceOnUse" gradientTransform="matrix(1 0 0 1 2250.2 2596.569999999999)"  x1="0" y1="0" x2="0" y2="2096">
<stop offset="0%" style="stop-color:rgb(252,227,138);stop-opacity: 1"/>
<stop offset="100%" style="stop-color:rgb(243,129,129);stop-opacity: 1"/>
</linearGradient>
<path style="stroke: none; stroke-width: 1; stroke-dasharray: none; stroke-linecap: butt; stroke-dashoffset: 0; stroke-linejoin: miter; stroke-miterlimit: 4; fill: url(#SVGID_93431); fill-rule: nonzero; opacity: 1;"  paint-order="stroke"  transform=" translate(-3525.1849999999995, -3644.564999999999)" d="M 4408.42 4591.32 L 4532.59 4467.15 L 4295.71 4230.2699999999995 C 4107.17 4509 3788.14 4692.5599999999995 3427.07 4692.5599999999995 C 2849.2000000000003 4692.5599999999995 2379.07 4222.429999999999 2379.07 3644.5599999999995 C 2379.07 3584.4599999999996 2384.4700000000003 3525.6299999999997 2394.27 3468.2999999999993 L 2582.19 3656.2199999999993 C 2588.5 4116.879999999999 2964.94 4489.719999999999 3427.07 4489.719999999999 C 3732.4500000000003 4489.719999999999 4000.48 4326.929999999999 4148.99 4083.5699999999993 L 3649.0299999999997 3583.609999999999 L 3222.7299999999996 4009.939999999999 L 2616.9399999999996 3404.119999999999 L 2250.2 3037.3599999999988 C 2277.3999999999996 2971.569999999999 2310.99 2909.029999999999 2350.41 2850.739999999999 L 2558.45 3058.809999999999 C 2747.02 2780.109999999999 3065.99 2596.569999999999 3427.0699999999997 2596.569999999999 C 4004.93 2596.569999999999 4475.0599999999995 3066.699999999999 4475.0599999999995 3644.5599999999986 C 4475.0599999999995 3704.4999999999986 4469.679999999999 3763.1599999999985 4459.95 3820.319999999999 L 4271.91 3632.3099999999986 C 4265.29 3171.9099999999985 3888.99 2799.4099999999985 3427.0699999999997 2799.4099999999985 C 3121.7099999999996 2799.4099999999985 2853.7099999999996 2962.1699999999983 2705.1699999999996 3205.5099999999984 L 3222.7299999999996 3723.0599999999986 L 3649.0299999999997 3296.7299999999987 L 4237.219999999999 3884.9199999999987 L 4237.329999999999 3884.529999999999 L 4396.049999999999 4043.279999999999 L 4395.909999999999 4043.6499999999987 L 4675.999999999999 4323.729999999999 L 4800.169999999999 4199.559999999999 L 4800.169999999999 4591.319999999999 L 4408.419999999999 4591.319999999999" stroke-linecap="round" />
</g>
</g>
</g>
<g transform="matrix(1.9211538461538462 0 0 1.9211538461538462 637.4290493087326 782.8094709436994)" id="text-logo"  >
<g style=""  paint-order="stroke"   >
		<g transform="matrix(1 0 0 1 0 0)" id="text-logo-path-0"  >
<path style="stroke: none; stroke-width: 0; stroke-dasharray: none; stroke-linecap: butt; stroke-dashoffset: 0; stroke-linejoin: miter; stroke-miterlimit: 4; fill: rgb(112,155,235); fill-rule: nonzero; opacity: 1;"  paint-order="stroke"  transform=" translate(-238.32, 8.4)" d="M 18.34 -16.8 L 2.5 -16.8 L 3.46 -15.36 L 3.22 -14.02 L 8.26 -14.02 L 5.78 0 L 10.92 0 L 13.39 -14.02 L 17.83 -14.02 Z M 26.57 -15.36 L 23.86 0 L 28.99 0 L 30.29 -7.27 L 37.56 -7.27 L 36.26 0 L 41.38 0 L 43.92 -14.35 L 41.47 -16.8 L 25.61 -16.8 Z M 30.77 -10.06 L 31.46 -14.02 L 38.74 -14.02 L 38.04 -10.06 Z M 52.58 -15.36 L 49.87 0 L 63.84 0 L 64.34 -2.78 L 55.49 -2.78 L 57.96 -16.8 L 51.62 -16.8 Z M 75.05 -15.36 L 72.34 0 L 86.3 0 L 86.81 -2.78 L 77.95 -2.78 L 78.74 -7.27 L 86.38 -7.27 L 86.88 -10.06 L 79.25 -10.06 L 79.94 -14.02 L 88.78 -14.02 L 89.28 -16.8 L 74.09 -16.8 Z M 97.51 -15.36 L 94.8 0 L 99.91 0 L 102.07 -12.22 L 106.49 0 L 112.32 0 L 115.3 -16.8 L 110.16 -16.8 L 108.02 -4.61 L 103.63 -16.8 L 96.55 -16.8 Z M 138.41 -16.8 L 122.57 -16.8 L 123.53 -15.36 L 123.29 -14.02 L 128.33 -14.02 L 125.86 0 L 130.99 0 L 133.46 -14.02 L 137.9 -14.02 Z M 146.64 -15.36 L 145.2 -7.27 L 157.63 -7.27 L 156.84 -2.81 L 144.43 -2.81 L 143.93 0 L 161.45 0 L 162.79 -7.61 L 160.34 -10.06 L 150.82 -10.06 L 151.51 -13.99 L 156.65 -13.99 L 156.34 -12.19 L 161.47 -12.19 L 161.83 -14.35 L 159.38 -16.8 L 145.68 -16.8 Z M 172.66 -15.36 L 170.38 -2.45 L 172.82 0 L 187.46 0 L 190.01 -14.35 L 187.56 -16.8 L 171.7 -16.8 Z M 175.58 -2.81 L 177.53 -13.99 L 184.82 -13.99 L 182.86 -2.81 Z M 198.67 -15.36 L 195.96 0 L 209.93 0 L 210.43 -2.78 L 201.58 -2.78 L 204.05 -16.8 L 197.71 -16.8 Z M 221.14 -15.36 L 218.86 -2.45 L 221.3 0 L 233.45 0 L 236.45 -2.83 L 238.92 -16.8 L 233.81 -16.8 L 231.34 -2.81 L 224.06 -2.81 L 226.51 -16.8 L 220.18 -16.8 Z M 262.03 -16.8 L 246.19 -16.8 L 247.15 -15.36 L 246.91 -14.02 L 251.95 -14.02 L 249.48 0 L 254.62 0 L 257.09 -14.02 L 261.53 -14.02 Z M 270.26 -15.36 L 267.55 0 L 272.66 0 L 275.64 -16.8 L 269.3 -16.8 Z M 283.87 -15.36 L 281.59 -2.45 L 284.04 0 L 298.68 0 L 301.22 -14.35 L 298.78 -16.8 L 282.91 -16.8 Z M 286.8 -2.81 L 288.74 -13.99 L 296.04 -13.99 L 294.07 -2.81 Z M 309.89 -15.36 L 307.18 0 L 312.29 0 L 314.45 -12.22 L 318.86 0 L 324.7 0 L 327.67 -16.8 L 322.54 -16.8 L 320.4 -4.61 L 316.01 -16.8 L 308.93 -16.8 Z M 335.9 -15.36 L 334.46 -7.27 L 346.9 -7.27 L 346.1 -2.81 L 333.7 -2.81 L 333.19 0 L 350.71 0 L 352.06 -7.61 L 349.61 -10.06 L 340.08 -10.06 L 340.78 -13.99 L 345.91 -13.99 L 345.6 -12.19 L 350.74 -12.19 L 351.1 -14.35 L 348.65 -16.8 L 334.94 -16.8 Z M 361.92 -15.36 L 360.48 -7.27 L 372.91 -7.27 L 372.12 -2.81 L 359.71 -2.81 L 359.21 0 L 376.73 0 L 378.07 -7.61 L 375.62 -10.06 L 366.1 -10.06 L 366.79 -13.99 L 371.93 -13.99 L 371.62 -12.19 L 376.75 -12.19 L 377.11 -14.35 L 374.66 -16.8 L 360.96 -16.8 Z M 384.5 -2.81 L 384 0 L 388.32 0 L 388.82 -2.81 Z M 399.53 -15.36 L 397.25 -2.45 L 399.7 0 L 414.34 0 L 415.32 -5.59 L 410.21 -5.59 L 409.73 -2.81 L 402.46 -2.81 L 404.4 -13.99 L 411.7 -13.99 L 411.26 -11.64 L 416.4 -11.64 L 416.88 -14.35 L 414.43 -16.8 L 398.57 -16.8 Z M 425.54 -15.36 L 423.26 -2.45 L 425.71 0 L 440.35 0 L 442.9 -14.35 L 440.45 -16.8 L 424.58 -16.8 Z M 428.47 -2.81 L 430.42 -13.99 L 437.71 -13.99 L 435.74 -2.81 Z M 451.56 -15.36 L 448.85 0 L 453.96 0 L 455.88 -10.8 L 458.4 0 L 461.59 0 L 467.95 -10.78 L 466.06 0 L 471.17 0 L 474.14 -16.8 L 468.29 -16.8 L 460.68 -3.89 L 457.68 -16.8 L 450.6 -16.8 Z" stroke-linecap="round" />
</g>
</g>
</g>
</svg>